<svg width="13" height="12" viewBox="0 0 13 12" fill="none" xmlns="http://www.w3.org/2000/svg">
<path d="M7.8 2.52632V1.26316H5.2V2.52632H7.8ZM1.3 4.42105V10.1053C1.3 10.4526 1.5925 10.7368 1.95 10.7368H11.05C11.4075 10.7368 11.7 10.4526 11.7 10.1053V4.42105C11.7 4.07368 11.4075 3.78947 11.05 3.78947H1.95C1.5925 3.78947 1.3 4.07368 1.3 4.42105ZM11.7 2.52632C12.4215 2.52632 13 3.08842 13 3.78947V10.7368C13 11.4379 12.4215 12 11.7 12H1.3C0.5785 12 0 11.4379 0 10.7368L0.00649999 3.78947C0.00649999 3.08842 0.5785 2.52632 1.3 2.52632H3.9V1.26316C3.9 0.562105 4.4785 0 5.2 0H7.8C8.5215 0 9.1 0.562105 9.1 1.26316V2.52632H11.7Z" fill="#7F93B6"/>
</svg>
