<svg width="14" height="12" viewBox="0 0 14 12" fill="none" xmlns="http://www.w3.org/2000/svg">
<g clip-path="url(#clip0_231_184)">
<path d="M12.8692 1.9125H10.5976L9.23798 0.3825C9.23798 0.3825 9.23125 0.375 9.22789 0.375L9.22115 0.3675C9.01923 0.1425 8.74664 0 8.43702 0H5.6101C5.28029 0 4.9875 0.1575 4.78221 0.40875V0.4125L3.45288 1.9125H1.13077C0.504808 1.9125 0 2.46 0 3.1575V10.7362C0 11.4338 0.504808 12 1.13077 12H12.8692C13.4918 12 14 11.4338 14 10.7362V3.1575C14 2.46 13.4918 1.9125 12.8692 1.9125ZM7 10.1063C5.28702 10.1063 3.89038 8.54625 3.89038 6.63375C3.89038 4.7175 5.28702 3.16125 7 3.16125C8.71635 3.16125 10.1096 4.7175 10.1096 6.63375C10.1096 8.54625 8.71635 10.1063 7 10.1063ZM12.6572 3.91875C12.3981 3.91875 12.1861 3.6825 12.1861 3.39C12.1861 3.0975 12.3981 2.86125 12.6572 2.86125C12.9163 2.86125 13.1284 3.0975 13.1284 3.39C13.1284 3.6825 12.9163 3.91875 12.6572 3.91875Z" fill="#613FE5"/>
<path d="M6.99943 4.00876C5.70039 4.00876 4.65039 5.18251 4.65039 6.63376C4.65039 8.08126 5.70039 9.25876 6.99943 9.25876C8.2951 9.25876 9.34847 8.08501 9.34847 6.63376C9.34847 5.18251 8.2951 4.00876 6.99943 4.00876Z" fill="#613FE5"/>
</g>
<defs>
<clipPath id="clip0_231_184">
<rect width="14" height="12" fill="white"/>
</clipPath>
</defs>
</svg>
