<?xml version="1.0" ?>
<svg viewBox="0 0 256 256" xmlns="http://www.w3.org/2000/svg">
    <rect fill="none" height="256" width="256"/>
    <ellipse cx="96" cy="84" fill="none" rx="80" ry="36" stroke="#613FE5" stroke-linecap="round" stroke-linejoin="round" stroke-width="12"/>
    <path d="M16,84v40c0,19.9,35.8,36,80,36s80-16.1,80-36V84" fill="none" stroke="#613FE5" stroke-linecap="round" stroke-linejoin="round" stroke-width="12"/>
    <line fill="none" stroke="#613FE5" stroke-linecap="round" stroke-linejoin="round" stroke-width="12" x1="64" x2="64" y1="117" y2="157"/>
    <path d="M176,96.7c36.5,3.4,64,17.9,64,35.3,0,19.9-35.8,36-80,36-19.6,0-37.6-3.2-51.5-8.4" fill="none" stroke="#613FE5" stroke-linecap="round" stroke-linejoin="round" stroke-width="12"/>
    <path d="M80,159.3V172c0,19.9,35.8,36,80,36s80-16.1,80-36V132" fill="none" stroke="#613FE5" stroke-linecap="round" stroke-linejoin="round" stroke-width="12"/>
    <line fill="none" stroke="#613FE5" stroke-linecap="round" stroke-linejoin="round" stroke-width="12" x1="192" x2="192" y1="165" y2="205"/><line fill="none" stroke="#000" stroke-linecap="round" stroke-linejoin="round" stroke-width="12" x1="128" x2="128" y1="117" y2="205"/>
</svg>