<?xml version="1.0" standalone="no"?>
<!DOCTYPE svg PUBLIC "-//W3C//DTD SVG 20010904//EN"
 "http://www.w3.org/TR/2001/REC-SVG-20010904/DTD/svg10.dtd">
<svg version="1.0" xmlns="http://www.w3.org/2000/svg"
 width="" height="200" viewBox="0 0 3000 2000"
 preserveAspectRatio="xMidYMid meet">

<g transform="translate(0.000000,2000.000000) scale(0.100000,-0.100000)"
fill="#000000" stroke="none">
<path d="M16795 14705 c-60 -13 -159 -36 -220 -51 -143 -35 -282 -37 -485 -5
-183 29 -307 25 -423 -13 -105 -35 -431 -195 -600 -295 -76 -44 -142 -81 -147
-81 -6 0 -10 -4 -10 -9 0 -5 -9 -12 -19 -16 -11 -3 -79 -44 -151 -90 -72 -47
-134 -85 -136 -85 -3 0 -170 -110 -372 -243 -202 -134 -401 -262 -442 -285
-142 -77 -175 -93 -245 -123 -38 -17 -83 -36 -100 -44 -16 -7 -93 -36 -170
-65 -387 -144 -613 -256 -925 -459 -222 -144 -345 -225 -350 -231 -3 -3 -54
-39 -113 -80 -100 -70 -195 -137 -502 -354 -161 -114 -465 -328 -562 -395 -75
-52 -99 -63 -440 -192 -46 -18 -66 -35 -152 -137 l-99 -117 -155 -78 c-243
-122 -472 -201 -687 -239 -122 -21 -374 -16 -510 11 -235 46 -503 130 -701
219 -24 11 -89 40 -144 65 -55 25 -158 73 -230 107 -297 142 -412 190 -630
261 -132 43 -163 58 -260 123 -60 41 -139 89 -175 107 -60 31 -72 34 -155 33
-89 0 -92 -1 -235 -66 -185 -83 -276 -129 -478 -240 -333 -182 -514 -304 -666
-448 -240 -227 -454 -388 -862 -646 -27 -18 -112 -72 -189 -121 -518 -330
-1016 -591 -1485 -776 -129 -51 -342 -128 -358 -129 -45 -3 -53 1 -40 22 7 11
18 20 25 20 7 0 13 5 13 11 0 6 -7 8 -18 5 -9 -4 -2 6 15 23 21 19 31 35 27
45 -7 19 -16 20 -31 5 -9 -9 -10 -7 -6 10 3 11 12 21 21 21 12 0 13 3 5 11 -6
6 -9 17 -7 24 4 9 -3 11 -20 8 -15 -3 -23 -10 -19 -19 3 -8 -5 -16 -21 -20
-14 -3 -26 -13 -26 -22 0 -28 -9 -7 -13 31 -3 25 0 37 8 37 7 0 15 11 17 25 3
14 1 22 -5 18 -5 -3 -13 0 -17 7 -10 17 17 60 37 60 12 0 12 2 -1 15 -8 8 -27
15 -41 15 -22 0 -26 4 -22 20 3 11 1 20 -3 20 -5 0 -11 8 -13 18 -4 13 -5 11
-6 -5 -1 -16 -7 -23 -20 -23 -14 0 -18 5 -14 20 3 11 1 20 -4 20 -5 0 -9 16
-8 36 0 22 -5 39 -14 44 -8 4 -17 27 -21 51 -5 31 -7 16 -6 -52 1 -65 -3 -101
-12 -112 -9 -10 -10 -17 -2 -22 15 -9 2 -25 -15 -18 -8 3 -15 15 -15 26 0 33
-23 4 -24 -30 -1 -23 -5 -27 -24 -25 -12 2 -29 -4 -37 -12 -14 -14 -13 -16 11
-22 19 -5 22 -9 12 -15 -9 -6 -10 -9 -1 -9 7 0 12 -11 11 -24 -1 -14 -7 -22
-14 -19 -8 3 -11 -2 -7 -16 3 -12 11 -21 17 -21 6 0 12 -9 12 -20 0 -11 -3
-20 -7 -20 -4 0 -6 -8 -4 -17 1 -10 0 -13 -2 -6 -2 6 -16 14 -29 17 -16 4 -24
12 -21 20 4 9 -3 16 -18 18 -32 7 -41 -27 -14 -55 10 -11 16 -23 13 -26 -4 -3
-9 0 -11 7 -6 17 -20 15 -27 -4 -4 -9 6 -27 27 -46 18 -17 24 -28 15 -25 -25
9 -22 -2 7 -25 28 -22 32 -38 10 -38 -23 0 -18 -15 10 -30 14 -7 25 -19 25
-27 0 -19 -34 -16 -63 7 -16 12 -40 20 -65 20 -23 0 -43 4 -46 9 -7 11 -46 2
-46 -10 0 -5 -3 -8 -7 -7 -5 1 -27 -2 -50 -6 -26 -5 -49 -3 -60 3 -17 10 -17
10 0 11 10 0 15 5 12 10 -3 5 0 10 8 10 16 0 40 47 32 61 -6 8 9 13 19 7 2 -2
14 6 26 17 20 18 20 20 3 26 -16 7 -15 8 5 8 12 1 22 6 22 12 0 7 -11 9 -27 5
-26 -5 -26 -4 4 9 37 17 49 33 35 47 -11 11 -92 -28 -92 -43 0 -4 -9 -7 -20
-6 -20 1 -27 21 -11 31 5 4 8 14 6 24 -1 9 2 23 8 30 17 22 1 23 -26 2 -14
-11 -32 -20 -40 -20 -29 0 -27 19 3 36 32 20 39 34 15 34 -22 0 -18 16 10 38
29 23 32 34 8 25 -10 -3 -4 8 14 25 21 19 31 37 27 46 -7 18 -20 21 -29 6 -3
-5 -11 -10 -17 -10 -6 0 1 11 15 24 15 14 23 28 17 31 -5 3 -7 11 -4 18 2 7
-5 12 -21 12 -19 0 -23 -4 -19 -17 4 -12 -2 -19 -20 -24 -14 -3 -27 -13 -29
-22 -3 -12 -5 -11 -6 5 0 12 -7 24 -13 26 -10 4 -10 6 -1 6 7 1 10 8 7 16 -4
9 0 15 10 15 9 0 16 8 16 21 0 11 -4 18 -9 15 -5 -3 -11 5 -13 19 -3 14 -1 25
4 25 5 0 7 4 4 9 -3 5 6 12 19 15 23 6 24 8 11 21 -8 8 -24 15 -35 15 -20 0
-51 -24 -51 -41 0 -5 -4 -9 -10 -9 -17 0 -11 29 9 39 19 11 36 51 21 51 -5 0
-11 8 -13 18 -4 13 -5 11 -6 -5 0 -13 -7 -23 -15 -23 -8 0 -16 -6 -19 -12 -2
-7 -5 7 -5 32 -3 78 -7 95 -22 101 -9 3 -17 25 -21 50 -4 29 -6 11 -7 -56 -1
-150 -1 -153 -23 -148 -11 3 -19 14 -19 26 0 21 0 21 -15 -1 -17 -24 -8 -55
20 -66 8 -3 15 -15 15 -27 0 -22 0 -22 -19 -3 -10 10 -17 22 -14 27 2 4 -2 7
-9 7 -7 0 -24 3 -37 7 -17 4 -22 3 -17 -5 4 -7 1 -12 -9 -12 -9 0 -13 -4 -10
-10 3 -5 14 -10 24 -10 13 0 18 -8 18 -34 0 -24 -4 -33 -14 -29 -9 4 -11 0 -6
-13 3 -11 10 -22 15 -25 11 -8 17 -68 7 -75 -5 -3 -9 1 -9 9 0 8 -12 18 -26
21 -17 5 -24 12 -20 21 4 11 -2 15 -18 15 -24 0 -46 -32 -27 -38 6 -2 11 -10
11 -18 0 -8 5 -14 12 -14 6 0 8 -3 5 -6 -4 -4 -13 -2 -21 5 -11 9 -15 8 -20
-4 -4 -10 6 -28 27 -47 17 -18 24 -29 14 -25 -24 9 -21 0 8 -27 29 -27 31 -36
10 -36 -24 0 -18 -19 10 -32 14 -6 25 -17 25 -24 0 -23 -27 -22 -56 2 -33 26
-53 32 -34 9 7 -9 10 -18 7 -22 -4 -3 0 -15 8 -27 8 -11 15 -30 14 -41 0 -11
-3 -15 -5 -8 -3 7 -11 10 -19 7 -7 -3 -23 4 -34 15 -12 12 -21 19 -21 16 0 -3
-11 2 -24 10 -16 11 -26 13 -31 6 -9 -16 2 -30 38 -46 22 -10 25 -14 10 -11
-13 2 -26 0 -29 -5 -3 -5 3 -9 13 -9 14 0 15 -2 4 -9 -12 -8 -12 -12 2 -25 9
-9 20 -16 24 -15 19 3 34 -2 29 -10 -3 -5 -1 -22 5 -39 7 -22 15 -29 26 -25
11 4 14 2 9 -5 -4 -8 0 -12 11 -12 13 -1 11 -5 -10 -16 -15 -8 -32 -12 -37 -9
-6 4 -23 9 -38 11 -15 3 -37 12 -49 20 -28 18 -33 18 -33 -2 0 -11 -5 -14 -16
-10 -9 3 -20 6 -26 6 -6 0 -8 10 -4 24 6 23 4 24 -29 19 -24 -4 -35 -2 -35 6
0 8 8 10 20 6 14 -5 20 -2 20 10 0 11 6 14 25 9 19 -5 25 -2 25 10 0 9 7 19
15 22 25 10 17 27 -10 22 -13 -3 -26 0 -28 6 -3 7 -12 4 -26 -8 -11 -11 -21
-14 -21 -8 0 7 -11 12 -25 12 -18 0 -25 5 -25 20 0 12 7 20 16 20 9 0 14 6 11
13 -3 7 6 23 19 36 13 13 24 27 24 32 0 5 6 9 13 9 13 0 40 50 31 59 -3 3 -26
5 -52 5 -28 0 -51 5 -57 14 -9 11 -15 11 -40 -2 -56 -28 -120 -43 -148 -33
-30 10 -36 27 -11 27 14 0 15 2 3 17 -12 15 -12 16 4 10 22 -8 51 17 43 38 -3
8 -1 15 5 15 6 0 9 7 5 15 -5 15 26 39 37 28 10 -10 39 27 33 42 -3 9 0 15 9
15 8 0 15 5 15 11 0 7 -12 9 -36 4 -49 -9 -36 11 16 25 33 9 40 15 40 35 0 25
-14 33 -25 15 -4 -6 -11 -8 -16 -5 -5 4 -9 1 -9 -4 0 -6 -6 -11 -14 -11 -7 0
-19 -7 -26 -15 -7 -8 -16 -12 -21 -9 -5 3 -9 0 -9 -7 0 -6 -8 -9 -20 -6 -11 3
-20 1 -20 -4 0 -5 -4 -9 -10 -9 -15 0 -12 27 6 44 8 9 12 16 8 16 -3 0 -1 6 5
14 6 7 9 20 5 29 -3 8 -1 18 5 22 6 3 11 11 11 16 0 6 -18 -4 -40 -21 -24 -19
-48 -30 -62 -28 -27 4 -35 26 -12 35 44 17 73 63 39 63 -8 0 -15 3 -15 8 1 13
24 38 43 45 24 9 21 26 -4 20 -19 -5 -20 -4 -8 16 8 11 19 21 26 21 16 0 25
17 29 51 4 32 -7 37 -26 14 -19 -23 -29 -18 -17 10 7 14 18 25 26 25 8 0 11 6
7 16 -3 9 -6 21 -6 28 0 8 -10 11 -29 8 -22 -3 -27 -8 -24 -22 3 -12 -3 -19
-22 -24 -36 -9 -68 2 -61 21 3 8 6 19 6 24 0 5 6 9 13 9 9 0 14 12 15 31 1 23
-2 28 -12 20 -10 -8 -13 -3 -14 24 -1 22 3 35 11 35 8 0 6 4 -3 10 -12 7 -8
11 18 16 36 7 38 10 18 30 -20 19 -86 19 -86 -1 0 -8 -4 -15 -10 -15 -5 0 -10
-7 -10 -15 0 -8 -7 -15 -15 -15 -8 0 -15 4 -15 9 0 21 13 41 26 41 19 0 33 39
27 73 -7 34 -23 35 -23 2 0 -18 -5 -25 -19 -25 -11 0 -22 -6 -25 -12 -3 -7 -4
-1 -1 14 3 16 0 28 -8 31 -9 4 -8 6 2 6 11 1 11 4 0 18 -8 9 -13 18 -11 20 1
1 1 38 0 81 -1 44 -3 60 -5 37 -7 -60 -27 -64 -34 -7 -4 33 -7 13 -9 -68 -1
-63 -2 -118 -1 -122 0 -5 -4 -8 -10 -8 -8 0 -8 -4 -1 -12 5 -8 6 -22 1 -33 -7
-18 -8 -18 -8 -2 -1 11 -7 17 -18 15 -12 -2 -19 6 -24 27 -6 28 -7 29 -14 8
-4 -13 -11 -23 -15 -23 -16 0 21 -58 40 -63 13 -3 20 -14 20 -31 0 -18 -4 -24
-15 -20 -8 4 -15 12 -15 20 0 8 -4 14 -10 14 -5 0 -10 7 -10 15 0 11 -11 15
-41 15 -24 0 -38 -4 -34 -10 3 -5 -1 -10 -9 -10 -9 0 -16 -4 -16 -10 0 -5 11
-10 24 -10 25 0 48 -20 24 -20 -8 0 -6 -5 5 -11 12 -7 15 -15 8 -27 -4 -9 -6
-24 -3 -32 4 -12 3 -13 -10 -3 -12 11 -15 8 -15 -17 0 -22 5 -30 18 -30 12 0
16 -5 13 -15 -4 -8 -1 -15 5 -15 21 0 11 -18 -14 -24 -39 -10 -77 3 -70 24 4
14 -1 19 -25 22 -23 3 -30 1 -26 -8 3 -8 1 -16 -4 -19 -15 -9 -12 -25 4 -25 7
0 16 -8 20 -17 3 -10 9 -25 12 -33 4 -8 -5 -4 -20 9 -14 14 -26 23 -27 20 0
-2 -2 -13 -4 -23 -5 -24 11 -56 28 -56 7 0 18 -10 26 -21 12 -20 11 -21 -8
-16 -25 6 -28 -11 -4 -20 18 -7 50 -44 45 -53 -1 -3 -8 -5 -14 -5 -29 0 -18
-33 17 -49 20 -10 34 -23 32 -29 -7 -22 -48 -19 -82 7 -42 33 -50 33 -29 1 10
-15 12 -25 5 -25 -6 0 -2 -14 9 -32 11 -18 20 -42 20 -53 0 -15 -2 -17 -9 -6
-5 8 -16 11 -25 8 -9 -4 -16 -2 -16 3 0 6 -6 10 -14 10 -7 0 -19 7 -26 15 -7
8 -16 12 -21 9 -5 -3 -12 1 -15 9 -10 26 -34 15 -34 -16 0 -24 3 -28 20 -24
11 3 20 1 20 -3 0 -5 8 -11 18 -14 9 -2 4 -4 -13 -3 -36 2 -46 -15 -13 -25 16
-4 18 -6 6 -7 -22 -1 -24 -21 -3 -21 8 0 14 -3 14 -7 -3 -20 2 -27 10 -14 8
12 12 13 26 1 9 -7 14 -19 11 -27 -3 -7 -1 -13 4 -13 5 0 7 -7 4 -15 -8 -19
22 -49 42 -41 9 4 12 2 8 -5 -4 -6 0 -15 7 -20 19 -11 1 -29 -31 -30 -14 0
-49 6 -77 14 l-53 15 0 -151 c0 -164 5 -197 26 -197 22 0 17 -41 -6 -47 -20
-5 -20 -14 -20 -4659 l0 -4654 15000 0 15000 0 -2 4416 -3 4416 -90 47 c-83
43 -259 134 -695 359 -91 46 -214 110 -275 142 -60 31 -195 101 -300 155 -104
54 -244 126 -310 160 -66 34 -201 104 -300 155 -455 233 -946 492 -970 510 -5
4 -77 47 -160 95 -157 92 -371 231 -490 320 -38 28 -106 78 -150 111 -44 32
-119 89 -165 126 -467 367 -689 534 -871 655 -232 154 -408 252 -608 338 -109
47 -126 58 -146 92 -32 52 -154 149 -305 241 -30 19 -163 95 -295 169 -259
147 -443 257 -516 310 -123 88 -265 115 -395 75 -59 -18 -98 -43 -260 -164
-271 -204 -560 -398 -768 -517 -15 -9 -53 -31 -85 -49 -227 -134 -656 -346
-901 -444 -69 -28 -134 -54 -145 -59 -11 -5 -39 -15 -63 -24 l-43 -14 -43 68
c-24 38 -63 99 -86 137 -93 153 -311 380 -535 556 -33 26 -97 76 -141 111 -92
73 -263 185 -371 242 -40 21 -69 43 -66 48 3 6 1 7 -5 3 -15 -9 -113 45 -105
58 4 5 1 6 -6 2 -7 -5 -35 7 -66 28 -30 20 -57 36 -60 36 -25 0 -236 180 -228
193 3 6 2 7 -4 4 -12 -8 -195 177 -185 188 4 5 2 5 -5 1 -14 -7 -56 47 -45 59
4 5 2 5 -5 1 -6 -3 -16 2 -22 11 -6 10 -11 15 -11 12 0 -3 -71 66 -157 154
-87 87 -157 163 -155 169 1 5 -1 7 -6 4 -5 -3 -18 5 -29 17 -11 12 -29 29 -39
37 -10 8 -67 56 -125 105 -59 50 -129 108 -157 129 -28 22 -48 44 -45 49 3 6
2 7 -3 4 -6 -3 -57 33 -114 79 -58 47 -151 122 -207 166 -57 44 -100 85 -96
91 4 6 1 7 -6 2 -13 -8 -64 33 -56 45 3 4 -3 7 -13 6 -10 0 -16 5 -14 14 2 8
0 12 -3 8 -10 -9 -76 42 -69 53 3 5 -1 7 -8 4 -7 -3 -29 10 -48 28 -60 56
-149 125 -170 132 -11 4 -18 11 -15 16 3 5 -2 6 -11 2 -13 -5 -15 -3 -9 7 5 8
4 11 -1 7 -5 -3 -36 1 -69 9 -83 19 -152 17 -280 -11z m-16375 -3960 c0 -8 -2
-15 -4 -15 -2 0 -6 7 -10 15 -3 8 -1 15 4 15 6 0 10 -7 10 -15z m150 -421 c0
-8 -4 -12 -10 -9 -5 3 -10 13 -10 21 0 8 5 12 10 9 6 -3 10 -13 10 -21z m-314
-51 c-11 -11 -17 4 -9 23 7 18 8 18 11 1 2 -10 1 -21 -2 -24z m1819 -432 c-7
-23 -25 -29 -25 -8 0 14 21 39 28 33 2 -3 1 -14 -3 -25z m-117 -34 c5 -23 -10
-21 -26 4 -12 18 -11 20 5 17 10 -2 19 -11 21 -21z m-162 -389 c4 -7 3 -8 -4
-4 -7 4 -12 2 -12 -3 0 -6 5 -11 11 -11 5 0 7 -4 4 -10 -3 -5 -17 -10 -31 -10
-13 0 -24 5 -24 10 0 6 6 10 14 10 8 0 16 7 20 15 7 18 12 19 22 3z m-999 -24
c-3 -3 -12 -4 -19 -1 -8 3 -5 6 6 6 11 1 17 -2 13 -5z m160 -90 c-3 -3 -12 -4
-19 -1 -8 3 -5 6 6 6 11 1 17 -2 13 -5z"/>
<path d="M1362 10295 c0 -16 2 -22 5 -12 2 9 2 23 0 30 -3 6 -5 -1 -5 -18z"/>
</g>
</svg>
