<svg width="41" height="36" viewBox="0 0 41 36" fill="none" xmlns="http://www.w3.org/2000/svg">
<g clip-path="url(#clip0_27_73)">
<path d="M13.431 20.7692C16.3597 20.7692 19.0106 19.6062 20.9298 17.7265C22.8469 15.849 24.0345 13.2528 24.0345 10.3846C24.0345 7.51638 22.8469 4.92023 20.9298 3.04269C19.0106 1.16308 16.3597 0 13.431 0C10.5024 0 7.85149 1.16308 5.93227 3.04269C4.01516 4.92023 2.82758 7.51638 2.82758 10.3846C2.82758 13.2528 4.01516 15.849 5.93227 17.7265C7.85149 19.6062 10.5024 20.7692 13.431 20.7692Z" fill="white"/>
<path d="M13.431 35.3077C20.8916 35.3077 26.1552 33.2307 26.1552 31.1538C26.1552 27 21.1631 22.8461 13.431 22.8461C5.47846 22.8461 0.706909 27 0.706909 31.1538C0.706909 33.2307 5.47846 35.3077 13.431 35.3077Z" fill="white"/>
<path d="M38.8793 16.6154H34.6379V12.4616C34.6379 11.313 33.69 10.3846 32.5172 10.3846C31.3445 10.3846 30.3966 11.313 30.3966 12.4616V16.6154H26.1552C24.9824 16.6154 24.0345 17.5438 24.0345 18.6923C24.0345 19.8409 24.9824 20.7693 26.1552 20.7693H30.3966V24.9231C30.3966 26.0716 31.3445 27 32.5172 27C33.69 27 34.6379 26.0716 34.6379 24.9231V20.7693H38.8793C40.0521 20.7693 41 19.8409 41 18.6923C41 17.5438 40.0521 16.6154 38.8793 16.6154Z" fill="white"/>
</g>
<defs>
<clipPath id="clip0_27_73">
<rect width="41" height="36" fill="white"/>
</clipPath>
</defs>
</svg>
