<svg width="179" height="27" viewBox="0 0 179 27" fill="none" xmlns="http://www.w3.org/2000/svg">
<path d="M19.42 2.37V26H15.544V15.664H4.426V26H0.55V2.37H4.426V12.502H15.544V2.37H19.42ZM41.6927 16.174C41.6927 16.8767 41.6473 17.5113 41.5567 18.078H27.2427C27.356 19.574 27.9113 20.7753 28.9087 21.682C29.906 22.5887 31.13 23.042 32.5807 23.042C34.666 23.042 36.1393 22.1693 37.0007 20.424H41.1827C40.616 22.1467 39.5847 23.5633 38.0887 24.674C36.6153 25.762 34.7793 26.306 32.5807 26.306C30.79 26.306 29.1807 25.9093 27.7527 25.116C26.3473 24.3 25.2367 23.1667 24.4207 21.716C23.6273 20.2427 23.2307 18.5427 23.2307 16.616C23.2307 14.6893 23.616 13.0007 24.3867 11.55C25.18 10.0767 26.2793 8.94333 27.6847 8.15C29.1127 7.35667 30.7447 6.96 32.5807 6.96C34.3487 6.96 35.924 7.34533 37.3067 8.116C38.6893 8.88667 39.766 9.97467 40.5367 11.38C41.3073 12.7627 41.6927 14.3607 41.6927 16.174ZM37.6467 14.95C37.624 13.522 37.114 12.3773 36.1167 11.516C35.1193 10.6547 33.884 10.224 32.4107 10.224C31.0733 10.224 29.9287 10.6547 28.9767 11.516C28.0247 12.3547 27.458 13.4993 27.2767 14.95H37.6467ZM49.383 0.84V26H45.507V0.84H49.383ZM58.3479 0.84V26H54.4719V0.84H58.3479ZM71.5627 26.306C69.7947 26.306 68.1967 25.9093 66.7687 25.116C65.3407 24.3 64.2187 23.1667 63.4027 21.716C62.5867 20.2427 62.1787 18.5427 62.1787 16.616C62.1787 14.712 62.5981 13.0233 63.4367 11.55C64.2754 10.0767 65.4201 8.94333 66.8707 8.15C68.3214 7.35667 69.9421 6.96 71.7327 6.96C73.5234 6.96 75.1441 7.35667 76.5947 8.15C78.0454 8.94333 79.1901 10.0767 80.0287 11.55C80.8674 13.0233 81.2867 14.712 81.2867 16.616C81.2867 18.52 80.8561 20.2087 79.9947 21.682C79.1334 23.1553 77.9547 24.3 76.4587 25.116C74.9854 25.9093 73.3534 26.306 71.5627 26.306ZM71.5627 22.94C72.5601 22.94 73.4894 22.702 74.3507 22.226C75.2347 21.75 75.9487 21.036 76.4927 20.084C77.0367 19.132 77.3087 17.976 77.3087 16.616C77.3087 15.256 77.0481 14.1113 76.5267 13.182C76.0054 12.23 75.3141 11.516 74.4527 11.04C73.5914 10.564 72.6621 10.326 71.6647 10.326C70.6674 10.326 69.7381 10.564 68.8767 11.04C68.0381 11.516 67.3694 12.23 66.8707 13.182C66.3721 14.1113 66.1227 15.256 66.1227 16.616C66.1227 18.6333 66.6327 20.1973 67.6527 21.308C68.6954 22.396 69.9987 22.94 71.5627 22.94Z" fill="black"/>
<path d="M124.72 2.37L117.716 26H113.33L108.366 8.116L103.096 26L98.7444 26.034L92.0464 2.37H96.1604L101.056 21.614L106.36 2.37H110.712L115.642 21.512L120.572 2.37H124.72ZM136.043 26.306C134.275 26.306 132.677 25.9093 131.249 25.116C129.821 24.3 128.699 23.1667 127.883 21.716C127.067 20.2427 126.659 18.5427 126.659 16.616C126.659 14.712 127.079 13.0233 127.917 11.55C128.756 10.0767 129.901 8.94333 131.351 8.15C132.802 7.35667 134.423 6.96 136.213 6.96C138.004 6.96 139.625 7.35667 141.075 8.15C142.526 8.94333 143.671 10.0767 144.509 11.55C145.348 13.0233 145.767 14.712 145.767 16.616C145.767 18.52 145.337 20.2087 144.475 21.682C143.614 23.1553 142.435 24.3 140.939 25.116C139.466 25.9093 137.834 26.306 136.043 26.306ZM136.043 22.94C137.041 22.94 137.97 22.702 138.831 22.226C139.715 21.75 140.429 21.036 140.973 20.084C141.517 19.132 141.789 17.976 141.789 16.616C141.789 15.256 141.529 14.1113 141.007 13.182C140.486 12.23 139.795 11.516 138.933 11.04C138.072 10.564 137.143 10.326 136.145 10.326C135.148 10.326 134.219 10.564 133.357 11.04C132.519 11.516 131.85 12.23 131.351 13.182C130.853 14.1113 130.603 15.256 130.603 16.616C130.603 18.6333 131.113 20.1973 132.133 21.308C133.176 22.396 134.479 22.94 136.043 22.94ZM153.475 9.986C154.041 9.034 154.789 8.29733 155.719 7.776C156.671 7.232 157.793 6.96 159.085 6.96V10.972H158.099C156.58 10.972 155.424 11.3573 154.631 12.128C153.86 12.8987 153.475 14.236 153.475 16.14V26H149.599V7.266H153.475V9.986ZM170.06 16.65L178.696 26H173.46L166.524 17.942V26H162.648V0.84H166.524V15.46L173.324 7.266H178.696L170.06 16.65Z" fill="#613FE5"/>
</svg>
