<svg width="16" height="17" viewBox="0 0 16 17" fill="none" xmlns="http://www.w3.org/2000/svg">
<g clip-path="url(#clip0_231_62)">
<path d="M5.284 8.41C5.04125 7.77192 4.91758 7.08905 4.92 6.4C4.92 5.33198 5.21559 4.28795 5.76939 3.39992C6.32319 2.5119 7.11033 1.81977 8.03127 1.41105C8.95221 1.00234 9.96559 0.895402 10.9433 1.10376C11.9209 1.31212 12.819 1.82642 13.5238 2.58163C14.2287 3.33683 14.7087 4.29902 14.9032 5.34651C15.0976 6.39401 14.9978 7.47977 14.6164 8.46649C14.2349 9.45321 13.5889 10.2966 12.7601 10.8899C11.9312 11.4833 10.9568 11.8 9.96 11.8C9.31689 11.8026 8.67954 11.6701 8.084 11.41L7.16 12.4H5.48V14.2H3.8V16H1V13L5.284 8.41Z" stroke="#353535" stroke-width="1.5" stroke-linecap="round" stroke-linejoin="round"/>
<path d="M11 6.125C11.5523 6.125 12 5.6493 12 5.0625C12 4.4757 11.5523 4 11 4C10.4477 4 10 4.4757 10 5.0625C10 5.6493 10.4477 6.125 11 6.125Z" fill="#353535"/>
</g>
<defs>
<clipPath id="clip0_231_62">
<rect width="16" height="17" fill="white"/>
</clipPath>
</defs>
</svg>
