<?xml version="1.0" ?><svg fill="none" height="24" viewBox="0 0 24 24" width="24" xmlns="http://www.w3.org/2000/svg"><path clip-rule="evenodd" d="M2.5 11C2.5 10.4477 2.94772 10 3.5 10H7C7.55228 10 8 10.4477 8 11V20C8 20.5523 7.55228 21 7 21H3.5C2.94772 21 2.5 20.5523 2.5 20V11ZM4.5 12V19H6V12H4.5Z" fill="black" fill-rule="evenodd"/><path clip-rule="evenodd" d="M13.5091 6.4233C13.2463 6.16047 12.7987 6.26612 12.6812 6.61874L11.9487 8.81624C11.9052 8.94669 11.8353 9.06677 11.7433 9.16897L9.49329 11.669C9.30365 11.8797 9.03349 12 8.75 12H8V19H17.2967C17.5311 19 17.734 18.8372 17.7848 18.6085L18.983 13.2169C19.1217 12.5924 18.6465 12 18.0068 12H14C13.6967 12 13.4098 11.8623 13.22 11.6257C13.0302 11.3891 12.958 11.0792 13.0238 10.7831L13.8452 7.08689C13.8823 6.92001 13.8315 6.74575 13.7106 6.62487L13.5091 6.4233ZM10.7838 5.98628C11.3715 4.2232 13.6092 3.69496 14.9233 5.00909L15.1249 5.21066C15.7293 5.81506 15.983 6.68635 15.7976 7.52075L15.2466 10H18.0068C19.926 10 21.3517 11.7773 20.9353 13.6508L19.7372 19.0423C19.483 20.1862 18.4685 21 17.2967 21H7C6.44772 21 6 20.5523 6 20V11C6 10.4477 6.44772 10 7 10H8.30464L10.1172 7.986L10.7838 5.98628Z" fill="black" fill-rule="evenodd"/></svg>