<svg width="10" height="12" viewBox="0 0 10 12" fill="#613FE5" xmlns="http://www.w3.org/2000/svg">
<path d="M5.01959 0C7.77628 0.0110497 10.0108 2.30518 9.99996 5.11339V5.16917C9.96273 7.17601 8.77989 8.84136 7.79436 9.88477C7.51389 10.1831 7.21534 10.4693 6.90749 10.7366C6.72309 10.8971 6.44623 10.875 6.28869 10.6872C6.13115 10.4988 6.15336 10.2168 6.33776 10.0563C6.62288 9.80847 6.90026 9.54223 7.1611 9.26493C8.03816 8.33675 9.0898 6.86925 9.12183 5.15285C9.13061 2.79505 7.2892 0.903446 5.01597 0.893975H4.99996C2.73448 0.893975 0.886873 2.76717 0.878092 5.07656C0.916832 6.21731 1.29493 7.30176 1.97209 8.21152C2.76238 9.28493 3.96123 10.4215 5.10068 11.1781C5.30419 11.3128 5.36153 11.5896 5.22878 11.7969C5.1451 11.9284 5.00409 12 4.8605 12C4.77837 12 4.69573 11.9768 4.62135 11.9274C3.40132 11.1176 2.11724 9.90003 1.27065 8.75033C0.485017 7.69429 0.0454542 6.4341 0 5.1076C0.010847 2.27151 2.25205 0 4.99996 0H5.01959ZM4.99841 3.23005C6.04747 3.23005 6.90129 4.09929 6.90129 5.16848C6.90129 6.23715 6.04747 7.10639 4.99841 7.10639C3.94935 7.10639 3.09553 6.23715 3.09553 5.16848C3.09553 4.92118 3.29233 4.72123 3.53458 4.72123C3.77683 4.72123 3.97363 4.92118 3.97363 5.16848C3.97363 5.74359 4.43333 6.21242 4.99841 6.21242C5.56349 6.21242 6.0232 5.74359 6.0232 5.16848C6.0232 4.59284 5.56349 4.12402 4.99841 4.12402C4.75616 4.12402 4.55937 3.92407 4.55937 3.6773C4.55937 3.42999 4.75616 3.23005 4.99841 3.23005Z" fill="#613FE5"/>
</svg>
