<svg width="16" height="17" viewBox="0 0 16 17" fill="none" xmlns="http://www.w3.org/2000/svg">
<g clip-path="url(#clip0_231_68)">
<path d="M3.41406 9.5625H11C11.2652 9.5625 11.5196 9.45056 11.7071 9.2513C11.8946 9.05204 12 8.78179 12 8.5C12 8.21821 11.8946 7.94796 11.7071 7.7487C11.5196 7.54944 11.2652 7.4375 11 7.4375H3.41406L4.70703 6.06372C4.89369 5.8643 4.9983 5.59437 4.99793 5.31311C4.99756 5.03186 4.89224 4.76224 4.70507 4.56337C4.51789 4.36449 4.26413 4.25259 3.99942 4.2522C3.73471 4.25181 3.48066 4.36296 3.29296 4.56128L0.292965 7.74878C0.200087 7.84741 0.126409 7.96452 0.0761409 8.09342C0.025873 8.22232 0 8.36048 0 8.5C0 8.63953 0.025873 8.77768 0.0761409 8.90658C0.126409 9.03548 0.200087 9.15259 0.292965 9.25122L3.29296 12.4387C3.38572 12.5378 3.49597 12.6165 3.61739 12.6703C3.73882 12.724 3.86903 12.7518 4.00057 12.752C4.13212 12.7522 4.2624 12.7248 4.38397 12.6714C4.50553 12.618 4.61599 12.5396 4.709 12.4408C4.80202 12.342 4.87576 12.2246 4.92602 12.0955C4.97627 11.9663 5.00205 11.8279 5.00186 11.6881C5.00168 11.5483 4.97554 11.41 4.92495 11.281C4.87436 11.152 4.8003 11.0348 4.70703 10.9363L3.41406 9.5625Z" fill="#353535"/>
<path d="M15 1.708e-07H7C6.86866 -7.89758e-05 6.73859 0.0273494 6.61723 0.080717C6.49587 0.134085 6.3856 0.212345 6.29273 0.311023C6.19985 0.409701 6.1262 0.526861 6.07597 0.655805C6.02574 0.78475 5.99993 0.922948 6 1.0625V3.1875C6 3.46929 6.10536 3.73954 6.29289 3.9388C6.48043 4.13806 6.73478 4.25 7 4.25C7.26522 4.25 7.51957 4.13806 7.70711 3.9388C7.89464 3.73954 8 3.46929 8 3.1875V2.125H14V14.875H8V13.8125C8 13.5307 7.89464 13.2605 7.70711 13.0612C7.51957 12.8619 7.26522 12.75 7 12.75C6.73478 12.75 6.48043 12.8619 6.29289 13.0612C6.10536 13.2605 6 13.5307 6 13.8125V15.9375C5.99993 16.0771 6.02574 16.2153 6.07597 16.3442C6.1262 16.4731 6.19985 16.5903 6.29273 16.689C6.3856 16.7877 6.49587 16.8659 6.61723 16.9193C6.73859 16.9727 6.86866 17.0001 7 17H15C15.1313 17.0001 15.2614 16.9727 15.3828 16.9193C15.5041 16.8659 15.6144 16.7877 15.7073 16.689C15.8001 16.5903 15.8738 16.4731 15.924 16.3442C15.9743 16.2153 16.0001 16.0771 16 15.9375V1.0625C16.0001 0.922948 15.9743 0.78475 15.924 0.655805C15.8738 0.526861 15.8001 0.409701 15.7073 0.311023C15.6144 0.212345 15.5041 0.134085 15.3828 0.080717C15.2614 0.0273494 15.1313 -7.89758e-05 15 1.708e-07Z" fill="#353535"/>
</g>
<defs>
<clipPath id="clip0_231_68">
<rect width="16" height="17" fill="white"/>
</clipPath>
</defs>
</svg>
