<svg width="36" height="36" viewBox="0 0 36 36" fill="none" xmlns="http://www.w3.org/2000/svg">
<path d="M35.1147 30.8837L25.7787 21.5455C27.6394 18.6391 28.3611 15.1475 27.805 11.7414C27.2489 8.33524 25.4543 5.25466 22.7659 3.09128C20.0774 0.927903 16.6847 -0.165742 13.2393 0.0203837C9.79383 0.20651 6.5386 1.65928 4.09875 4.0997C1.6589 6.54011 0.206462 9.7961 0.020379 13.2423C-0.165704 16.6886 0.927687 20.0821 3.09057 22.7712C5.25344 25.4602 8.33331 27.2552 11.7387 27.8114C15.144 28.3677 18.6348 27.6459 21.5405 25.7847L30.8765 35.1228C31.4388 35.6845 32.2009 36 32.9956 36C33.7902 36 34.5524 35.6845 35.1147 35.1228C35.3951 34.8457 35.6178 34.5156 35.7698 34.1518C35.9217 33.788 36 33.3976 36 33.0032C36 32.6089 35.9217 32.2185 35.7698 31.8547C35.6178 31.4908 35.3951 31.1608 35.1147 30.8837ZM4.00811 14.007C4.00811 12.0296 4.59435 10.0966 5.69269 8.45245C6.79103 6.80829 8.35214 5.52682 10.1786 4.77009C12.0051 4.01337 14.0149 3.81538 15.9538 4.20115C17.8928 4.58693 19.6739 5.53914 21.0718 6.93739C22.4697 8.33563 23.4217 10.1171 23.8074 12.0565C24.1931 13.996 23.9951 16.0062 23.2386 17.8331C22.482 19.66 21.2009 21.2215 19.5571 22.3201C17.9133 23.4187 15.9807 24.005 14.0038 24.005C11.3528 24.005 8.81033 22.9517 6.93578 21.0767C5.06122 19.2017 4.00811 16.6587 4.00811 14.007Z" fill="white"/>
</svg>
