<svg width="23" height="23" viewBox="0 0 23 23" fill="none" xmlns="http://www.w3.org/2000/svg">
<path d="M19.7034 17.6717L15.228 13.1963C16.12 11.8033 16.4659 10.1299 16.1993 8.4975C15.9328 6.86505 15.0725 5.38865 13.7837 4.35182C12.495 3.31499 10.8686 2.79085 9.21692 2.88005C7.56527 2.96926 6.00479 3.66552 4.83519 4.83512C3.66559 6.00471 2.96933 7.56519 2.88013 9.21685C2.79093 10.8685 3.31507 12.4949 4.3519 13.7837C5.38872 15.0724 6.86513 15.9327 8.49757 16.1993C10.13 16.4658 11.8034 16.1199 13.1963 15.2279L17.6717 19.7033C17.9413 19.9725 18.3066 20.1237 18.6876 20.1237C19.0685 20.1237 19.4339 19.9725 19.7034 19.7033C19.8379 19.5705 19.9446 19.4123 20.0175 19.238C20.0903 19.0636 20.1278 18.8765 20.1278 18.6875C20.1278 18.4985 20.0903 18.3114 20.0175 18.137C19.9446 17.9627 19.8379 17.8045 19.7034 17.6717ZM4.79174 9.58333C4.79174 8.63563 5.07277 7.70921 5.59929 6.92123C6.1258 6.13324 6.87416 5.51908 7.74972 5.15641C8.62528 4.79374 9.58873 4.69885 10.5182 4.88374C11.4477 5.06862 12.3015 5.52499 12.9716 6.19511C13.6418 6.86524 14.0981 7.71903 14.283 8.64853C14.4679 9.57802 14.373 10.5415 14.0103 11.417C13.6477 12.2926 13.0335 13.0409 12.2455 13.5675C11.4575 14.094 10.5311 14.375 9.58341 14.375C8.31258 14.375 7.0938 13.8702 6.19519 12.9716C5.29658 12.0729 4.79174 10.8542 4.79174 9.58333Z" fill="#7F93B6"/>
</svg>
