<svg width="21" height="21" viewBox="0 0 21 21" fill="none" xmlns="http://www.w3.org/2000/svg">
<path d="M15.8212 11.0933C15.8212 11.5604 15.6356 12.0083 15.3054 12.3385C14.9752 12.6687 14.5273 12.8543 14.0602 12.8543C13.5932 12.8543 13.1453 12.6687 12.8151 12.3385C12.4848 12.0083 12.2993 11.5604 12.2993 11.0933V11.0743H11.0743V12.8735C11.0743 13.0258 11.0138 13.1718 10.9061 13.2795C10.7984 13.3872 10.6524 13.4477 10.5001 13.4477H9.90668C9.74424 13.4477 9.58845 13.5122 9.47358 13.6271C9.35872 13.7419 9.29419 13.8977 9.29419 14.0602C9.29419 14.2226 9.35872 14.3784 9.47358 14.4933C9.58845 14.6081 9.74424 14.6727 9.90668 14.6727H10.5001C10.6524 14.6727 10.7984 14.7332 10.9061 14.8409C11.0138 14.9485 11.0743 15.0946 11.0743 15.2469V17.6203H12.8735V18.2137C12.8735 18.5284 12.9985 18.8302 13.2211 19.0528C13.4436 19.2754 13.7455 19.4004 14.0602 19.4004C14.375 19.4004 14.6768 19.2754 14.8994 19.0528C15.1219 18.8302 15.2469 18.5284 15.2469 18.2137V17.6203H17.6203V15.2469H17.027C16.7127 15.2463 16.4114 15.121 16.1893 14.8985C15.9672 14.676 15.8425 14.3745 15.8425 14.0601C15.8425 13.7458 15.9672 13.4443 16.1893 13.2218C16.4114 12.9993 16.7127 12.874 17.027 12.8734H17.6203V11.0743H15.8212V11.0933Z" fill="#7F93B6"/>
<path d="M8.14571 14.0602C8.14624 13.5933 8.33194 13.1457 8.66206 12.8156C8.99218 12.4855 9.43977 12.2998 9.90663 12.2992H9.92584V11.0743H8.12649C7.9742 11.0743 7.82815 11.0138 7.72046 10.9061C7.61278 10.7984 7.55228 10.6523 7.55227 10.5V9.90662C7.55227 9.74418 7.48774 9.58839 7.37287 9.47352C7.25801 9.35866 7.10222 9.29413 6.93978 9.29413C6.77733 9.29413 6.62155 9.35866 6.50668 9.47352C6.39182 9.58839 6.32729 9.74418 6.32729 9.90662V10.5C6.32728 10.6523 6.26678 10.7984 6.15909 10.9061C6.05141 11.0138 5.90536 11.0743 5.75307 11.0743H3.37969V12.8734H2.78632C2.47197 12.874 2.17069 12.9993 1.94861 13.2218C1.72653 13.4443 1.60181 13.7458 1.60181 14.0601C1.60181 14.3745 1.72653 14.676 1.94861 14.8985C2.17069 15.121 2.47197 15.2463 2.78632 15.2469H3.37969V17.6203H5.75314V17.0269C5.75373 16.7126 5.87901 16.4113 6.10151 16.1892C6.324 15.9672 6.62551 15.8424 6.93987 15.8424C7.25423 15.8424 7.55574 15.9672 7.77823 16.1892C8.00073 16.4113 8.12601 16.7126 8.1266 17.0269V17.6203H9.92587V15.8211H9.90666C9.43979 15.8206 8.9922 15.6349 8.66207 15.3048C8.33194 14.9746 8.14624 14.527 8.14571 14.0602Z" fill="#7F93B6"/>
<path d="M18.2136 5.75312H17.6202V3.37968H15.2468V3.97304C15.2468 4.28778 15.1218 4.58963 14.8993 4.81218C14.6767 5.03474 14.3748 5.15977 14.0601 5.15977C13.7454 5.15977 13.4435 5.03474 13.221 4.81218C12.9984 4.58963 12.8734 4.28778 12.8734 3.97304V3.37968H11.0742V5.17885H11.0933C11.5603 5.17885 12.0083 5.36438 12.3385 5.69463C12.6688 6.02489 12.8543 6.47281 12.8543 6.93985C12.8543 7.4069 12.6688 7.85482 12.3385 8.18507C12.0083 8.51533 11.5603 8.70086 11.0933 8.70086H11.0742V9.92584H12.8734C13.0257 9.92585 13.1718 9.98635 13.2794 10.094C13.3871 10.2017 13.4476 10.3478 13.4476 10.5001V11.0933C13.4476 11.2558 13.5122 11.4116 13.627 11.5264C13.7419 11.6413 13.8977 11.7058 14.0601 11.7058C14.2226 11.7058 14.3784 11.6413 14.4932 11.5264C14.6081 11.4116 14.6726 11.2558 14.6726 11.0933V10.5001C14.6726 10.3478 14.7331 10.2017 14.8408 10.094C14.9485 9.98634 15.0945 9.92584 15.2468 9.92583H17.6202V8.12656H18.2136C18.528 8.12598 18.8292 8.00069 19.0513 7.7782C19.2734 7.55571 19.3981 7.2542 19.3981 6.93984C19.3981 6.62549 19.2734 6.32397 19.0513 6.10148C18.8292 5.87899 18.528 5.75371 18.2136 5.75312Z" fill="#7F93B6"/>
<path d="M5.17883 9.90662C5.17883 9.43959 5.36435 8.9917 5.69459 8.66146C6.02483 8.33122 6.47273 8.14569 6.93975 8.14569C7.40678 8.14569 7.85468 8.33122 8.18492 8.66146C8.51516 8.9917 8.70068 9.43959 8.70068 9.90662V9.92583H9.92582V8.12663C9.92583 7.97434 9.98633 7.82829 10.094 7.7206C10.2017 7.61292 10.3477 7.55242 10.5 7.55241H11.0933C11.2558 7.55241 11.4116 7.48787 11.5265 7.37299C11.6414 7.25812 11.7059 7.10231 11.7059 6.93984C11.7059 6.77738 11.6414 6.62157 11.5265 6.50669C11.4116 6.39181 11.2558 6.32727 11.0933 6.32727H10.5C10.3477 6.32727 10.2017 6.26677 10.094 6.15908C9.98631 6.0514 9.92581 5.90535 9.9258 5.75306V3.37968H8.12653V2.78633C8.12595 2.47197 8.00066 2.17069 7.77817 1.94861C7.55568 1.72653 7.25416 1.60181 6.93981 1.60181C6.62545 1.60181 6.32393 1.72653 6.10144 1.94861C5.87895 2.17069 5.75366 2.47197 5.75308 2.78633V3.37968H3.37964V5.75312H3.97302C4.28737 5.7537 4.58865 5.87899 4.81073 6.10148C5.0328 6.32397 5.15753 6.62548 5.15753 6.93984C5.15753 7.25419 5.0328 7.55571 4.81073 7.77819C4.58865 8.00068 4.28737 8.12597 3.97302 8.12656H3.37964V9.92583H5.17884L5.17883 9.90662Z" fill="#7F93B6"/>
</svg>
