<svg width="579" height="562" viewBox="0 0 579 562" fill="none" xmlns="http://www.w3.org/2000/svg">
<g clip-path="url(#clip0_37_127)">
<path d="M406.334 560.103C405.728 560.741 405.098 561.37 404.461 562H331.753C331.155 561.386 330.566 560.757 329.976 560.103C329.952 560.079 329.928 560.047 329.904 560.023C322.005 551.272 317.032 538.552 313.931 525.138C313.732 524.325 313.556 523.504 313.381 522.675C312.568 518.905 311.906 515.095 311.365 511.317C311.269 510.664 311.173 510.01 311.093 509.356C310.36 503.929 309.866 498.589 309.547 493.575C309.507 492.93 309.467 492.3 309.428 491.67C308.844 481.69 308.838 471.683 309.412 461.702C309.412 461.702 309.507 461.702 309.691 461.71C310.225 461.734 311.508 461.79 313.397 461.901C318.602 462.22 328.422 463.017 339.971 464.898C340.6 465.002 341.238 465.113 341.876 465.225C351.644 466.839 361.281 469.173 370.705 472.207C371.295 472.406 371.877 472.605 372.467 472.805L372.475 472.845L379.704 509.117L382.701 476.83C385.084 477.906 387.404 479.053 389.628 480.281C390.249 480.624 390.855 480.966 391.453 481.317C396.537 484.198 401.152 487.837 405.138 492.109C428.851 518.387 423.773 541.875 406.334 560.103Z" fill="#F2F2F2"/>
<path d="M375.949 514.108L377.21 515.505C391.78 531.81 400.475 546.945 403.154 560.711C403.196 560.911 403.225 561.111 403.268 561.311L402.336 561.487L401.438 561.646C398.703 546.637 388.524 531.123 375.82 516.897C375.415 516.435 375.004 515.966 374.579 515.509C369.148 509.534 363.308 503.802 357.404 498.443C356.951 498.024 356.484 497.605 356.018 497.186C348.188 490.152 340.31 483.789 333.285 478.425C332.79 478.044 332.288 477.669 331.793 477.3C319.865 468.271 310.61 462.285 308.547 460.973C308.298 460.809 308.157 460.722 308.125 460.701L308.614 459.922L308.614 459.908L309.11 459.123C309.141 459.144 309.615 459.432 310.47 459.99C313.681 462.06 322.311 467.756 333.047 475.855C333.529 476.222 334.031 476.597 334.526 476.979C340.232 481.325 346.472 486.306 352.774 491.758C354.359 493.125 355.905 494.49 357.411 495.852C357.884 496.266 358.351 496.685 358.804 497.104C365.188 502.896 370.903 508.564 375.949 514.108Z" fill="white"/>
<path d="M340.656 463.352C340.441 463.87 340.21 464.388 339.971 464.898C338.15 468.838 335.821 472.522 333.044 475.857C332.638 476.336 332.223 476.822 331.793 477.3C330.629 478.583 329.391 479.824 328.079 481.022C322.708 485.883 316.344 489.517 309.427 491.67C309.204 491.742 308.989 491.814 308.766 491.878C308.806 492.507 308.846 493.129 308.885 493.774C309.109 493.711 309.324 493.647 309.547 493.575C316.886 491.363 323.64 487.546 329.322 482.401C330.711 481.146 332.034 479.818 333.284 478.424C333.714 477.953 334.128 477.467 334.527 476.981C337.497 473.413 339.969 469.458 341.876 465.225C342.099 464.715 342.322 464.205 342.537 463.687C341.9 463.575 341.27 463.464 340.656 463.352Z" fill="white"/>
<path d="M371.032 470.796C370.936 471.266 370.825 471.737 370.705 472.207C368.544 481.167 363.942 489.352 357.411 495.855C356.956 496.309 356.494 496.755 356.016 497.186C355.88 497.321 355.728 497.465 355.585 497.592C349.643 502.956 342.505 506.822 334.766 508.869C327.027 510.915 318.91 511.082 311.093 509.356C310.91 509.324 310.719 509.277 310.536 509.237C310.631 509.89 310.719 510.552 310.822 511.205C311.006 511.245 311.181 511.285 311.365 511.317C319.38 512.975 327.673 512.722 335.572 510.577C343.471 508.432 350.753 504.456 356.828 498.971C357.02 498.796 357.219 498.628 357.402 498.445C357.881 497.999 358.343 497.552 358.805 497.106C365.49 490.417 370.217 482.027 372.475 472.845C372.594 472.366 372.706 471.888 372.81 471.41C372.22 471.203 371.63 470.995 371.032 470.796Z" fill="white"/>
<path d="M389.627 478.934C389.635 479.38 389.635 479.834 389.627 480.281C389.494 492.877 384.609 504.958 375.95 514.107C375.503 514.585 375.041 515.047 374.579 515.509C374.077 515.996 373.575 516.482 373.057 516.944C365.038 524.17 354.91 528.628 344.165 529.66C333.42 530.692 322.628 528.243 313.381 522.675C313.222 522.592 313.068 522.502 312.919 522.404C313.11 523.249 313.301 524.077 313.509 524.906C313.652 524.986 313.787 525.066 313.931 525.137C323.446 530.443 334.382 532.639 345.207 531.418C356.033 530.198 366.205 525.622 374.3 518.331C374.818 517.861 375.336 517.39 375.822 516.896C376.301 516.442 376.755 515.98 377.209 515.501C385.991 506.24 391.06 494.073 391.453 481.317C391.469 480.887 391.477 480.456 391.477 480.026C390.871 479.651 390.249 479.293 389.627 478.934Z" fill="white"/>
<path d="M228.49 131.97H88.3791C87.2131 131.969 86.0953 131.505 85.2708 130.681C84.4463 129.856 83.9826 128.739 83.9813 127.573V21.1893C83.9825 20.0233 84.4463 18.9055 85.2707 18.081C86.0952 17.2565 87.2131 16.7926 88.3791 16.7913H260.358C261.524 16.7926 262.642 17.2565 263.467 18.081C264.291 18.9055 264.755 20.0233 264.756 21.1893V95.7055C264.745 105.32 260.921 114.538 254.122 121.337C247.323 128.135 238.105 131.959 228.49 131.97Z" fill="white"/>
<path d="M228.49 132.369H88.3791C87.1075 132.367 85.8884 131.862 84.9892 130.962C84.0901 130.063 83.5843 128.844 83.5828 127.573V21.1894C83.5842 19.9178 84.0899 18.6986 84.9891 17.7994C85.8883 16.9002 87.1074 16.3943 88.3791 16.3928H260.358C261.63 16.3943 262.849 16.9001 263.749 17.7993C264.648 18.6986 265.153 19.9177 265.155 21.1894V95.7056C265.144 105.426 261.277 114.745 254.404 121.618C247.53 128.491 238.211 132.358 228.49 132.369ZM88.3791 17.9869C87.5301 17.9879 86.7161 18.3257 86.1158 18.926C85.5155 19.5264 85.1778 20.3404 85.1769 21.1894V127.573C85.1778 128.422 85.5155 129.236 86.1158 129.836C86.7162 130.436 87.5301 130.774 88.3791 130.775H228.49C237.788 130.764 246.702 127.066 253.277 120.492C259.852 113.917 263.55 105.003 263.561 95.7056V21.1894C263.56 20.3404 263.222 19.5264 262.622 18.926C262.021 18.3257 261.208 17.9879 260.358 17.9869H88.3791Z" fill="#CCCCCC"/>
<path d="M226.362 52.7189H122.375C121.42 52.7189 120.505 52.3397 119.83 51.6646C119.155 50.9896 118.775 50.0741 118.775 49.1195C118.775 48.1648 119.155 47.2493 119.83 46.5743C120.505 45.8992 121.42 45.52 122.375 45.52H226.362C227.316 45.5214 228.23 45.9013 228.904 46.5762C229.578 47.251 229.957 48.1658 229.957 49.1195C229.957 50.0732 229.578 50.9879 228.904 51.6627C228.23 52.3376 227.316 52.7175 226.362 52.7189Z" fill="#CCCCCC"/>
<path d="M226.362 77.515H122.375C121.42 77.515 120.505 77.1358 119.83 76.4608C119.155 75.7857 118.775 74.8702 118.775 73.9156C118.775 72.961 119.155 72.0454 119.83 71.3704C120.505 70.6954 121.42 70.3162 122.375 70.3162H226.362C227.317 70.3162 228.233 70.6954 228.908 71.3704C229.583 72.0454 229.962 72.961 229.962 73.9156C229.962 74.8702 229.583 75.7857 228.908 76.4608C228.233 77.1358 227.317 77.515 226.362 77.515Z" fill="#CCCCCC"/>
<path d="M226.362 103.02H122.375C121.42 103.02 120.505 102.641 119.83 101.966C119.155 101.291 118.775 100.375 118.775 99.4205C118.775 98.4658 119.155 97.5503 119.83 96.8753C120.505 96.2003 121.42 95.821 122.375 95.821H226.362C227.317 95.821 228.233 96.2003 228.908 96.8753C229.583 97.5503 229.962 98.4658 229.962 99.4205C229.962 100.375 229.583 101.291 228.908 101.966C228.233 102.641 227.317 103.02 226.362 103.02Z" fill="#CCCCCC"/>
<path d="M259.067 42.9893C270.939 42.9893 280.563 33.3658 280.563 21.4946C280.563 9.62347 270.939 0 259.067 0C247.196 0 237.572 9.62347 237.572 21.4946C237.572 33.3658 247.196 42.9893 259.067 42.9893Z" fill="#6C63FF"/>
<path d="M256.135 32.6816C255.764 32.6816 255.398 32.5951 255.066 32.4291C254.734 32.263 254.445 32.022 254.222 31.725L248.358 23.9061C248.17 23.6549 248.032 23.3691 247.955 23.0649C247.877 22.7608 247.859 22.4442 247.904 22.1334C247.948 21.8226 248.053 21.5235 248.213 21.2534C248.373 20.9832 248.585 20.7472 248.836 20.5588C249.087 20.3704 249.373 20.2334 249.677 20.1555C249.982 20.0775 250.298 20.0603 250.609 20.1047C250.92 20.1491 251.219 20.2543 251.489 20.4143C251.759 20.5743 251.995 20.7859 252.184 21.0371L256.02 26.152L265.874 11.372C266.226 10.8443 266.773 10.4781 267.395 10.3537C268.017 10.2293 268.662 10.3571 269.19 10.7088C269.718 11.0606 270.084 11.6075 270.208 12.2294C270.333 12.8512 270.205 13.497 269.853 14.0246L258.125 31.6168C257.912 31.9349 257.627 32.1976 257.292 32.3827C256.958 32.5679 256.584 32.6701 256.201 32.6808C256.179 32.6812 256.157 32.6816 256.135 32.6816Z" fill="white"/>
<path d="M176.776 224.369H36.6646C27.0495 224.358 17.8314 220.534 11.0326 213.735C4.23371 206.937 0.409346 197.719 0.398499 188.104V113.588C0.399868 112.422 0.863691 111.304 1.68822 110.479C2.51274 109.655 3.63065 109.191 4.79671 109.19H176.776C177.942 109.191 179.06 109.655 179.884 110.479C180.709 111.304 181.173 112.422 181.174 113.588V219.971C181.173 221.137 180.709 222.255 179.884 223.079C179.06 223.904 177.942 224.368 176.776 224.369Z" fill="white"/>
<path d="M176.776 224.768H36.6646C26.9439 224.756 17.6246 220.89 10.751 214.017C3.87747 207.144 0.0110521 197.825 0 188.104V113.588C0.00144085 112.316 0.507275 111.097 1.40652 110.198C2.30577 109.298 3.52501 108.793 4.79674 108.791H176.776C178.047 108.793 179.267 109.298 180.166 110.198C181.065 111.097 181.571 112.316 181.572 113.588V219.971C181.571 221.243 181.065 222.462 180.166 223.361C179.267 224.26 178.047 224.766 176.776 224.768ZM4.79674 110.385C3.94766 110.386 3.13366 110.724 2.53327 111.324C1.93289 111.925 1.59514 112.739 1.59411 113.588V188.104C1.60461 197.402 5.30291 206.316 11.8776 212.89C18.4523 219.465 27.3666 223.163 36.6646 223.173H176.776C177.625 223.173 178.439 222.835 179.039 222.234C179.64 221.634 179.977 220.82 179.978 219.971V113.588C179.977 112.739 179.64 111.925 179.039 111.324C178.439 110.724 177.625 110.386 176.776 110.385H4.79674Z" fill="#CCCCCC"/>
<path d="M142.78 145.117H38.7925C37.8378 145.117 36.9223 144.738 36.2472 144.063C35.5722 143.388 35.1929 142.473 35.1929 141.518C35.1929 140.563 35.5722 139.648 36.2472 138.973C36.9223 138.298 37.8378 137.918 38.7925 137.918H142.78C143.735 137.918 144.65 138.298 145.325 138.973C146 139.648 146.38 140.563 146.38 141.518C146.38 142.473 146 143.388 145.325 144.063C144.65 144.738 143.735 145.117 142.78 145.117Z" fill="#CCCCCC"/>
<path d="M142.78 169.913H38.7925C37.8378 169.913 36.9223 169.534 36.2472 168.859C35.5722 168.184 35.1929 167.269 35.1929 166.314C35.1929 165.359 35.5722 164.444 36.2472 163.769C36.9223 163.094 37.8378 162.715 38.7925 162.715H142.78C143.735 162.715 144.65 163.094 145.325 163.769C146 164.444 146.38 165.359 146.38 166.314C146.38 167.269 146 168.184 145.325 168.859C144.65 169.534 143.735 169.913 142.78 169.913Z" fill="#CCCCCC"/>
<path d="M142.78 195.418H38.7925C37.8378 195.418 36.9223 195.039 36.2472 194.364C35.5722 193.689 35.1929 192.773 35.1929 191.819C35.1929 190.864 35.5722 189.949 36.2472 189.274C36.9223 188.599 37.8378 188.219 38.7925 188.219H142.78C143.735 188.219 144.65 188.599 145.325 189.274C146 189.949 146.38 190.864 146.38 191.819C146.38 192.773 146 193.689 145.325 194.364C144.65 195.039 143.735 195.418 142.78 195.418Z" fill="#CCCCCC"/>
<path d="M176.97 136.241C188.842 136.241 198.466 126.618 198.466 114.747C198.466 102.876 188.842 93.2522 176.97 93.2522C165.099 93.2522 155.475 102.876 155.475 114.747C155.475 126.618 165.099 136.241 176.97 136.241Z" fill="#6C63FF"/>
<path d="M174.038 125.934C173.667 125.934 173.301 125.847 172.969 125.681C172.637 125.515 172.348 125.274 172.125 124.977L166.261 117.158C166.073 116.907 165.936 116.621 165.858 116.317C165.78 116.013 165.763 115.696 165.807 115.386C165.851 115.075 165.957 114.776 166.117 114.506C166.277 114.235 166.488 113.999 166.739 113.811C166.991 113.623 167.276 113.486 167.581 113.408C167.885 113.33 168.201 113.312 168.512 113.357C168.823 113.401 169.122 113.507 169.392 113.667C169.662 113.826 169.898 114.038 170.087 114.289L173.923 119.404L183.777 104.624C184.129 104.097 184.676 103.73 185.298 103.606C185.92 103.482 186.565 103.609 187.093 103.961C187.621 104.313 187.987 104.86 188.111 105.482C188.236 106.103 188.108 106.749 187.756 107.277L176.028 124.869C175.816 125.187 175.53 125.45 175.196 125.635C174.861 125.82 174.487 125.922 174.105 125.933C174.082 125.933 174.06 125.934 174.038 125.934Z" fill="white"/>
<path d="M351.351 323.53H155.303C145.688 323.519 136.47 319.695 129.671 312.896C122.873 306.097 119.048 296.88 119.037 287.265V177.663C119.039 176.16 119.637 174.719 120.7 173.656C121.763 172.593 123.204 171.995 124.707 171.994H351.351C352.854 171.995 354.295 172.593 355.357 173.656C356.42 174.719 357.018 176.16 357.019 177.663V317.86C357.018 319.363 356.42 320.804 355.357 321.867C354.295 322.93 352.854 323.528 351.351 323.53Z" fill="white"/>
<path d="M351.351 323.928H155.303C145.583 323.917 136.263 320.051 129.39 313.177C122.516 306.304 118.65 296.985 118.639 287.265V177.663C118.641 176.054 119.281 174.512 120.418 173.374C121.556 172.237 123.098 171.597 124.707 171.595H351.351C352.959 171.597 354.501 172.237 355.639 173.374C356.776 174.512 357.416 176.054 357.418 177.663V317.86C357.416 319.469 356.777 321.011 355.639 322.149C354.502 323.286 352.959 323.926 351.351 323.928ZM124.707 173.189C123.521 173.191 122.384 173.662 121.545 174.501C120.706 175.34 120.234 176.477 120.233 177.663V287.265C120.243 296.563 123.942 305.476 130.516 312.051C137.091 318.625 146.005 322.324 155.303 322.334H351.351C352.537 322.333 353.674 321.861 354.512 321.022C355.351 320.183 355.823 319.046 355.824 317.86V177.663C355.823 176.477 355.351 175.34 354.512 174.501C353.674 173.662 352.537 173.191 351.351 173.189H124.707Z" fill="#CCCCCC"/>
<path d="M306.549 219.214H169.508C168.885 219.215 168.267 219.093 167.691 218.855C167.115 218.617 166.591 218.268 166.15 217.827C165.709 217.386 165.359 216.863 165.12 216.287C164.881 215.711 164.758 215.094 164.758 214.471C164.758 213.847 164.881 213.23 165.12 212.654C165.359 212.078 165.709 211.555 166.15 211.114C166.591 210.674 167.115 210.324 167.691 210.086C168.267 209.848 168.885 209.726 169.508 209.727H306.549C307.172 209.726 307.79 209.848 308.366 210.086C308.942 210.324 309.466 210.674 309.907 211.114C310.348 211.555 310.698 212.078 310.937 212.654C311.176 213.23 311.299 213.847 311.299 214.471C311.299 215.094 311.176 215.711 310.937 216.287C310.698 216.863 310.348 217.386 309.907 217.827C309.466 218.268 308.942 218.617 308.366 218.855C307.79 219.093 307.172 219.215 306.549 219.214Z" fill="#CCCCCC"/>
<path d="M306.549 251.892H169.508C168.885 251.893 168.267 251.771 167.691 251.533C167.115 251.295 166.591 250.945 166.15 250.505C165.709 250.064 165.359 249.541 165.12 248.965C164.881 248.389 164.758 247.772 164.758 247.148C164.758 246.525 164.881 245.908 165.12 245.332C165.359 244.756 165.709 244.233 166.15 243.792C166.591 243.351 167.115 243.002 167.691 242.764C168.267 242.526 168.885 242.404 169.508 242.405H306.549C307.807 242.405 309.013 242.905 309.903 243.794C310.793 244.684 311.293 245.89 311.293 247.148C311.293 248.406 310.793 249.613 309.903 250.503C309.013 251.392 307.807 251.892 306.549 251.892Z" fill="#CCCCCC"/>
<path d="M306.549 285.504H169.508C168.25 285.504 167.044 285.004 166.154 284.114C165.264 283.225 164.765 282.018 164.765 280.76C164.765 279.502 165.264 278.295 166.154 277.406C167.044 276.516 168.25 276.016 169.508 276.016H306.549C307.172 276.016 307.79 276.138 308.366 276.376C308.942 276.614 309.466 276.963 309.907 277.404C310.348 277.844 310.698 278.367 310.937 278.943C311.176 279.519 311.299 280.137 311.299 280.76C311.299 281.383 311.176 282.001 310.937 282.577C310.698 283.153 310.348 283.676 309.907 284.116C309.466 284.557 308.942 284.906 308.366 285.144C307.79 285.382 307.172 285.504 306.549 285.504Z" fill="#CCCCCC"/>
<path d="M352.063 207.783C367.09 207.783 379.273 195.601 379.273 180.574C379.273 165.546 367.09 153.364 352.063 153.364C337.035 153.364 324.852 165.546 324.852 180.574C324.852 195.601 337.035 207.783 352.063 207.783Z" fill="#6C63FF"/>
<path d="M348.35 194.735C347.881 194.735 347.417 194.626 346.997 194.416C346.577 194.205 346.211 193.9 345.929 193.524L338.506 183.626C338.267 183.308 338.094 182.947 337.995 182.562C337.897 182.177 337.875 181.776 337.931 181.382C337.987 180.989 338.12 180.61 338.323 180.268C338.525 179.926 338.793 179.628 339.111 179.389C339.429 179.151 339.791 178.977 340.176 178.879C340.561 178.78 340.962 178.758 341.355 178.814C341.749 178.871 342.127 179.004 342.469 179.206C342.811 179.409 343.11 179.677 343.349 179.995L348.205 186.47L360.679 167.76C361.125 167.093 361.817 166.63 362.604 166.474C363.39 166.317 364.207 166.479 364.875 166.924C365.542 167.368 366.005 168.06 366.163 168.846C366.321 169.633 366.16 170.45 365.716 171.118L350.869 193.387C350.601 193.79 350.239 194.122 349.816 194.357C349.392 194.591 348.919 194.721 348.435 194.734C348.407 194.735 348.379 194.735 348.35 194.735Z" fill="white"/>
<path d="M422.556 540.278L411.485 543.98L391.936 503.042L408.275 497.578L422.556 540.278Z" fill="#FFB6B6"/>
<path d="M428.968 550.064L393.272 559.61L393.121 559.159C391.88 555.448 392.158 553.866 393.905 550.365C394.759 548.64 395.947 547.102 397.399 545.84C398.852 544.577 400.541 543.615 402.368 543.01L402.368 543.009L407.234 535.882L421.055 536.761L424.171 535.719L428.968 550.064Z" fill="#2F2E41"/>
<path d="M449.907 550.686H438.234L432.681 505.662L449.91 505.663L449.907 550.686Z" fill="#FFB6B6"/>
<path d="M452.884 559.61L415.245 559.609V559.133C415.245 555.22 416.769 553.932 419.536 551.165C420.894 549.8 422.508 548.719 424.286 547.982C426.064 547.246 427.971 546.869 429.895 546.874H429.896L436.771 541.658L449.599 546.875L452.885 546.875L452.884 559.61Z" fill="#2F2E41"/>
<path d="M361.066 189.944C361.306 191.167 361.812 192.323 362.547 193.329C363.282 194.335 364.229 195.168 365.321 195.769C366.413 196.37 367.624 196.724 368.867 196.807C370.111 196.889 371.358 196.698 372.519 196.247L385.996 210.316L396.543 204.212L377.233 184.611C376.345 182.709 374.791 181.2 372.864 180.368C370.938 179.536 368.773 179.439 366.78 180.097C364.788 180.754 363.105 182.12 362.052 183.935C360.999 185.75 360.648 187.888 361.066 189.944Z" fill="#FFB6B6"/>
<path d="M448.281 260.685L454.356 254.4L419.224 221.863L383.864 190.291L374.071 204.129L411.125 238.715L448.281 260.685Z" fill="#E4E4E4"/>
<path d="M426.695 474.21C426.695 466.311 426.851 460.677 426.977 456.15C427.344 442.9 427.443 439.339 422.372 416.522L421.07 410.663L413.391 433.7C410.938 441.049 409.685 448.744 409.679 456.492L421.519 527.532H397.319L379.595 450.73L379.586 427.238C378.025 425.622 377.152 423.462 377.152 421.215C377.152 418.968 378.025 416.809 379.586 415.193L385.475 379.997L391.435 332.563H456.72C456.72 332.563 468.241 356.444 456.792 380.132L456.79 474.24L450.875 539.309H432.612L426.695 474.21Z" fill="#2F2E41"/>
<path d="M452.728 338.305L391.663 333.216L391.346 333.19L396.22 245.475C396.506 239.959 398.441 234.657 401.775 230.254C405.108 225.851 409.687 222.55 414.917 220.778V214.639C414.919 213.12 415.524 211.664 416.598 210.589C417.672 209.515 419.129 208.911 420.648 208.909H429.571C430.636 208.905 431.68 209.2 432.586 209.76C433.492 210.32 434.223 211.123 434.696 212.077L439.059 220.802L455.557 234C463.705 240.519 457.147 305.873 456.795 309.321L460.785 329.272C461.004 330.369 460.978 331.502 460.707 332.588C460.437 333.674 459.929 334.686 459.22 335.552C458.512 336.419 457.62 337.117 456.61 337.598C455.599 338.079 454.494 338.33 453.375 338.332C453.161 338.332 452.945 338.323 452.728 338.305Z" fill="#E4E4E4"/>
<path d="M388.061 361.465C389.026 360.677 389.807 359.686 390.348 358.564C390.89 357.441 391.178 356.213 391.193 354.967C391.209 353.721 390.951 352.486 390.437 351.351C389.924 350.215 389.168 349.206 388.222 348.394L394.281 329.878L383.927 323.452L375.738 349.72C374.479 351.399 373.88 353.481 374.054 355.572C374.228 357.663 375.163 359.618 376.682 361.066C378.201 362.514 380.199 363.354 382.296 363.427C384.393 363.501 386.444 362.803 388.061 361.465Z" fill="#FFB6B6"/>
<path d="M409.356 235.592L400.95 232.789L388.807 286.962L377.624 340.836L394.444 343.311L407.488 286.028L409.356 235.592Z" fill="#E4E4E4"/>
<path d="M418.537 203.302C429.613 203.302 438.592 194.323 438.592 183.247C438.592 172.171 429.613 163.193 418.537 163.193C407.46 163.193 398.481 172.171 398.481 183.247C398.481 194.323 407.46 203.302 418.537 203.302Z" fill="#FFB6B6"/>
<path d="M391.552 173.426C391.737 171.525 392.281 169.677 393.157 167.98C394.095 170.019 397.019 170.373 399.021 169.358C401.022 168.343 402.364 166.416 403.794 164.687C407.568 160.125 412.759 156.424 418.642 155.75C424.525 155.076 431.009 158.045 433.232 163.534C434.23 162.149 436.358 161.995 437.863 162.799C439.318 163.716 440.452 165.061 441.112 166.648C442.593 169.686 443.429 172.997 443.57 176.373C443.71 179.749 443.151 183.118 441.928 186.268C439.451 192.537 433.333 200.982 427.022 203.348C423.19 204.784 419.32 202.946 415.245 203.348C415.458 198.901 416.32 193.413 416.534 188.966C416.651 186.53 416.668 183.806 415.004 182.023C414.494 181.538 413.883 181.172 413.216 180.95C412.548 180.727 411.84 180.654 411.141 180.736C410.442 180.817 409.77 181.051 409.171 181.422C408.573 181.792 408.063 182.289 407.678 182.878C407.472 181.495 407.005 180.164 406.302 178.956C405.941 178.357 405.42 177.87 404.798 177.551C404.175 177.232 403.476 177.094 402.779 177.151C401.078 177.43 400.027 179.177 398.465 179.908C397.578 180.264 396.604 180.34 395.673 180.126C394.741 179.912 393.898 179.419 393.254 178.713C392.629 177.992 392.156 177.152 391.864 176.243C391.571 175.335 391.465 174.377 391.552 173.426Z" fill="#2F2E41"/>
<path opacity="0.1" d="M421.133 285.784L397.579 332.89H415.245L421.133 285.784Z" fill="black"/>
<path d="M579 561.051C579 561.176 578.976 561.3 578.929 561.415C578.881 561.53 578.811 561.635 578.723 561.723C578.635 561.811 578.53 561.881 578.415 561.929C578.3 561.976 578.176 562 578.051 562H128.28C128.029 562 127.788 561.9 127.61 561.722C127.432 561.544 127.332 561.303 127.332 561.051C127.332 560.8 127.432 560.559 127.61 560.381C127.788 560.203 128.029 560.103 128.28 560.103H578.051C578.176 560.103 578.3 560.127 578.415 560.174C578.53 560.222 578.635 560.292 578.723 560.38C578.811 560.468 578.881 560.573 578.929 560.688C578.976 560.803 579 560.927 579 561.051Z" fill="#CACACA"/>
</g>
<defs>
<clipPath id="clip0_37_127">
<rect width="579" height="562" fill="white"/>
</clipPath>
</defs>
</svg>
