<svg width="13" height="13" viewBox="0 0 13 13" fill="none" xmlns="http://www.w3.org/2000/svg">
<path d="M6.02928 6.43151C4.26491 6.42222 2.83689 4.97908 2.84618 3.2147C2.85548 1.45033 4.29862 0.0223093 6.06299 0.0316028C7.82737 0.0408964 9.25538 1.48404 9.24609 3.24841C9.2368 5.01279 7.79366 6.44081 6.02928 6.43151ZM6.05878 0.831591C4.7352 0.82462 3.65314 1.89533 3.64617 3.21892C3.6392 4.5425 4.70991 5.62455 6.03349 5.63152C7.35708 5.63849 8.43913 4.56778 8.4461 3.2442C8.45307 1.92062 7.38236 0.838563 6.05878 0.831591Z" fill="#7F93B6"/>
<path d="M6.19726 4.91237L5.87727 4.91069C5.65307 4.90862 5.43548 4.83451 5.25663 4.69931C5.07778 4.56411 4.94714 4.37498 4.88401 4.15985C4.86806 4.109 4.86244 4.05547 4.86747 4.00242C4.8725 3.94937 4.88808 3.89785 4.91329 3.8509C4.93851 3.80396 4.97285 3.76252 5.0143 3.72903C5.05575 3.69554 5.10348 3.67067 5.15468 3.65588C5.20588 3.64109 5.25951 3.63668 5.31244 3.64291C5.36537 3.64914 5.41651 3.66588 5.46288 3.69215C5.50924 3.71842 5.54989 3.75369 5.58244 3.79589C5.61498 3.83809 5.63876 3.88637 5.65239 3.93789C5.68185 4.03925 5.77628 4.11054 5.88148 4.1111L6.20147 4.11278C6.26518 4.11312 6.32641 4.08814 6.37169 4.04333C6.41697 3.99852 6.4426 3.93756 6.44294 3.87385C6.44327 3.81015 6.41829 3.74892 6.37348 3.70364C6.32867 3.65836 6.26771 3.63273 6.204 3.63239L5.88401 3.63071C5.31042 3.62768 4.84648 3.15843 4.8495 2.58524C4.85252 2.01205 5.32137 1.54771 5.89497 1.55074L6.21496 1.55242C6.66335 1.55478 7.05784 1.84246 7.1976 2.26881C7.21477 2.31892 7.22181 2.37195 7.21832 2.42481C7.21483 2.47767 7.20087 2.52931 7.17726 2.57673C7.15365 2.62415 7.12085 2.66641 7.08078 2.70105C7.0407 2.7357 6.99414 2.76203 6.9438 2.77854C6.89346 2.79504 6.84035 2.80138 6.78754 2.79719C6.73473 2.793 6.68328 2.77836 6.63618 2.75412C6.58907 2.72988 6.54725 2.69653 6.51314 2.65599C6.47903 2.61546 6.45331 2.56856 6.43748 2.51801C6.42196 2.47003 6.39168 2.42818 6.35096 2.39844C6.31025 2.3687 6.26117 2.35259 6.21075 2.35241L5.89075 2.35072C5.8271 2.35039 5.76592 2.37535 5.72068 2.42012C5.67543 2.46489 5.64983 2.52581 5.64949 2.58946C5.64916 2.65311 5.67412 2.71428 5.71889 2.75953C5.76366 2.80478 5.82457 2.83038 5.88822 2.83072L6.20822 2.8324C6.78181 2.83542 7.24575 3.30467 7.24273 3.87787C7.23971 4.45106 6.77085 4.91539 6.19726 4.91237Z" fill="#7F93B6"/>
<path d="M6.05237 2.03158C5.94397 2.03101 5.8442 1.98648 5.76898 1.91408C5.75309 1.894 5.73319 1.8739 5.72132 1.84983C5.70557 1.82935 5.69351 1.80627 5.68568 1.78164C5.6743 1.75886 5.66621 1.73458 5.66166 1.70952C5.65821 1.6815 5.65433 1.65748 5.65448 1.62948C5.65503 1.52548 5.69918 1.42171 5.77197 1.34609C5.92075 1.19887 6.18875 1.20029 6.33997 1.34908C6.41156 1.42546 6.45502 1.52969 6.45447 1.63369C6.45432 1.66169 6.45019 1.68567 6.44565 1.71365C6.44135 1.73873 6.43312 1.76299 6.42127 1.78552C6.41302 1.80999 6.40073 1.83291 6.38491 1.85333C6.36879 1.87724 6.35268 1.89716 6.33657 1.91707C6.2606 1.98868 6.15637 2.03213 6.05237 2.03158ZM6.03551 5.23153C5.92711 5.23096 5.82735 5.18644 5.75213 5.11404C5.73623 5.09395 5.71634 5.07385 5.70447 5.04979C5.68871 5.0293 5.67665 5.00623 5.66882 4.9816C5.65744 4.95882 5.64935 4.93453 5.6448 4.90947C5.64135 4.88145 5.63748 4.85743 5.63763 4.82943C5.63817 4.72543 5.68232 4.62166 5.75512 4.54605C5.9039 4.39883 6.17189 4.40024 6.32311 4.54904C6.39471 4.62542 6.43816 4.72965 6.43761 4.83365C6.43747 4.86165 6.43334 4.88562 6.42879 4.9136C6.42449 4.93869 6.41626 4.96294 6.40441 4.98547C6.39617 5.00995 6.38388 5.03287 6.36806 5.05328C6.35193 5.0772 6.33582 5.09711 6.31972 5.11703C6.24374 5.18863 6.13951 5.23208 6.03551 5.23153ZM6.79968 12.0356L0.399775 12.0019C0.29369 12.0014 0.192172 11.9587 0.117553 11.8833C0.042935 11.8079 0.00132875 11.7059 0.00188753 11.5998L0.0208496 7.99989C0.021408 7.89389 0.0639446 7.79211 0.139538 7.71771C0.233631 7.6242 1.08836 6.8055 2.02714 6.81044C2.80473 6.81454 3.80482 7.40741 4.1409 7.62159L6.02287 7.6315C6.19795 7.63268 6.37065 7.67212 6.5289 7.74703C6.68714 7.82195 6.8271 7.93055 6.93898 8.06522C7.05087 8.19989 7.13197 8.35738 7.17661 8.52667C7.22126 8.69597 7.22836 8.87297 7.19744 9.0453L10.3607 7.74675C10.5434 7.67154 10.7419 7.6427 10.9385 7.66279C11.1351 7.68288 11.3236 7.75127 11.4873 7.86188C11.6513 7.97214 11.7854 8.12127 11.8778 8.29597C11.9701 8.47066 12.0177 8.6655 12.0165 8.86308C12.0161 8.933 11.9974 9.00161 11.9623 9.06207C11.9272 9.12252 11.8768 9.17271 11.8162 9.20763L7.00157 11.9823C6.94016 12.0176 6.87051 12.036 6.79968 12.0356ZM0.803983 11.2041L6.6955 11.2351L11.1651 8.6594C11.1343 8.60566 11.0916 8.55973 11.0402 8.52514C10.9859 8.48781 10.923 8.46473 10.8574 8.45803C10.7918 8.45132 10.7256 8.4612 10.6648 8.48676L6.96478 10.0057C6.91573 10.0258 6.86321 10.0359 6.81022 10.0357L3.61026 10.0188C3.50418 10.0183 3.40266 9.97559 3.32804 9.90018C3.25342 9.82477 3.21182 9.72281 3.21238 9.61672C3.21294 9.51064 3.25561 9.40912 3.33102 9.3345C3.40643 9.25988 3.50839 9.21827 3.61448 9.21883L6.01444 9.23148C6.11746 9.22741 6.21494 9.18377 6.28658 9.10963C6.35822 9.0355 6.39851 8.93659 6.39905 8.8335C6.3996 8.7304 6.36035 8.63107 6.28949 8.55619C6.21864 8.4813 6.12162 8.43664 6.01866 8.43149L4.01869 8.42095C3.93989 8.42054 3.86241 8.39653 3.79704 8.35298C3.49212 8.14738 2.57772 7.61335 2.02293 7.61043C1.58693 7.60813 1.08229 7.95748 0.819913 8.1797L0.803983 11.2041Z" fill="#7F93B6"/>
</svg>
